<svg width="323" height="323" viewBox="0 0 323 323" fill="none" xmlns="http://www.w3.org/2000/svg">
<mask id="mask0_814_2331" style="mask-type:luminance" maskUnits="userSpaceOnUse" x="2" y="47" width="319" height="229">
<path d="M2.58008 47.9453H320.413V275.055H2.58008V47.9453Z" fill="white"/>
</mask>
<g mask="url(#mask0_814_2331)">
<path d="M315.758 234.44H302.722V108.735C302.714 104.208 300.915 99.8707 297.714 96.6697C294.513 93.4711 290.176 91.6697 285.651 91.6623H271.684V59.0721C271.679 56.1938 270.535 53.4313 268.497 51.3958C266.462 49.3578 263.699 48.2119 260.818 48.2095H62.1734C59.2927 48.2119 56.5327 49.3578 54.4946 51.3958C52.4591 53.4313 51.3132 56.1938 51.3107 59.0721V91.6623H37.3429C32.8159 91.6697 28.4787 93.4711 25.2777 96.6697C22.079 99.8709 20.2776 104.208 20.2702 108.735V234.44H7.23415C4.66391 234.44 2.5791 236.525 2.5791 239.097V257.72C2.58649 262.245 4.38544 266.585 7.58655 269.783C10.7852 272.984 15.1247 274.786 19.6492 274.791H303.34C307.865 274.786 312.205 272.984 315.403 269.783C318.604 266.584 320.406 262.245 320.41 257.72V239.097C320.41 237.863 319.92 236.678 319.048 235.805C318.175 234.93 316.99 234.44 315.755 234.44L315.758 234.44ZM60.6192 82.3524H262.368V201.85C262.368 202.261 262.205 202.658 261.915 202.949C261.624 203.24 261.227 203.402 260.816 203.402H62.1705C61.3129 203.402 60.618 202.707 60.618 201.85L60.6192 82.3524ZM62.1717 57.5224L260.817 57.5249C261.228 57.5249 261.625 57.6875 261.916 57.9783C262.207 58.2691 262.369 58.6633 262.369 59.0749V73.0428H60.6203V59.0749C60.6203 58.2198 61.3153 57.5249 62.1728 57.5249L62.1717 57.5224ZM29.5815 108.738C29.5889 104.455 33.0586 100.985 37.3417 100.978H51.3095V201.852C51.312 204.733 52.4579 207.496 54.4934 209.531C56.5314 211.569 59.2914 212.713 62.1722 212.717H260.817C263.698 212.713 266.46 211.569 268.496 209.531C270.534 207.496 271.677 204.733 271.682 201.852V100.978H285.65C289.931 100.985 293.403 104.455 293.408 108.738V234.443H29.5825L29.5815 108.738ZM311.102 257.722C311.095 262.005 307.625 265.474 303.342 265.482H19.6511C15.3681 265.475 11.8985 262.005 11.8934 257.722V243.754H311.104L311.102 257.722Z" fill="black"/>
</g>
<path d="M112.615 187.883C113.85 187.883 115.035 187.392 115.907 186.517C116.78 185.645 117.27 184.46 117.27 183.225V102.525C117.27 99.9527 115.188 97.8679 112.615 97.8679C110.045 97.8679 107.96 99.9527 107.96 102.525V183.225C107.96 185.798 110.045 187.883 112.615 187.883Z" fill="black"/>
<path d="M76.9202 116.494H92.4406H92.4381C95.0109 116.494 97.0932 114.41 97.0932 111.837C97.0932 109.267 95.0109 107.182 92.4381 107.182H76.9177H76.9202C74.3475 107.182 72.2627 109.267 72.2627 111.837C72.2627 114.41 74.3475 116.494 76.9202 116.494Z" fill="black"/>
<path d="M76.9202 137.187H92.4406H92.4381C95.0109 137.187 97.0932 135.102 97.0932 132.529C97.0932 129.959 95.0109 127.874 92.4381 127.874H76.9177H76.9202C74.3475 127.874 72.2627 129.959 72.2627 132.529C72.2627 135.102 74.3475 137.187 76.9202 137.187Z" fill="black"/>
<path d="M76.9202 157.879H92.4406H92.4381C95.0109 157.879 97.0932 155.794 97.0932 153.224C97.0932 150.651 95.0109 148.566 92.4381 148.566H76.9177H76.9202C74.3475 148.566 72.2627 150.651 72.2627 153.224C72.2627 155.794 74.3475 157.879 76.9202 157.879Z" fill="black"/>
<path d="M76.9202 178.571H92.4406H92.4381C95.0109 178.571 97.0932 176.486 97.0932 173.916C97.0932 171.343 95.0109 169.259 92.4381 169.259H76.9177H76.9202C74.3475 169.259 72.2627 171.343 72.2627 173.916C72.2627 176.486 74.3475 178.571 76.9202 178.571Z" fill="black"/>
<path d="M134.342 178.571H246.08C248.65 178.571 250.735 176.486 250.735 173.916C250.735 171.343 248.65 169.259 246.08 169.259H241.424L241.422 136.668C241.422 135.434 240.932 134.251 240.059 133.379C239.187 132.504 238.002 132.013 236.767 132.013H218.144C215.574 132.013 213.489 134.098 213.489 136.668V169.259H204.176V111.838C204.176 110.603 203.686 109.42 202.813 108.545C201.939 107.673 200.756 107.183 199.521 107.183H180.898C178.325 107.183 176.241 109.267 176.241 111.838V169.258H166.928L166.93 130.461C166.93 129.226 166.44 128.043 165.565 127.168C164.693 126.296 163.51 125.806 162.273 125.806H143.65C141.079 125.806 138.995 127.89 138.995 130.461V169.258H134.34C131.767 169.258 129.685 171.343 129.685 173.916C129.685 176.486 131.767 178.571 134.34 178.571L134.342 178.571ZM222.801 141.326H232.114V169.261H222.801V141.326ZM185.555 116.496H194.868V169.262H185.555V116.496ZM148.31 135.119H157.623V169.262H148.31V135.119Z" fill="black"/>
</svg>
