<svg width="24" height="24" viewBox="0 0 24 24" fill="none" xmlns="http://www.w3.org/2000/svg">
<path fill-rule="evenodd" clip-rule="evenodd" d="M23.7547 4.40297C23.7547 7.75594 20.125 9.85148 17.2213 8.17508C15.8737 7.39697 15.0437 5.95919 15.0437 4.40297C15.0437 1.05017 18.6732 -1.04538 21.577 0.631022C22.9246 1.40914 23.7547 2.84691 23.7547 4.40297ZM13.6673 1.26188C8.51655 -0.297778 3.32192 3.55817 3.32363 8.93982V14.8164C3.32363 15.4851 2.78158 16.0272 2.11283 16.0272C1.10689 16.0272 0.478262 17.1161 0.981234 17.9871C1.21455 18.3914 1.64603 18.6405 2.11283 18.6405H20.5786C21.5845 18.6405 22.2132 17.5517 21.7102 16.6805C21.4769 16.2763 21.0454 16.0272 20.5786 16.0272C19.9099 16.0272 19.3678 15.485 19.3678 14.8164V10.9363C14.4145 10.915 11.2856 5.60485 13.6673 1.26188ZM8.2978 22.2609C8.2978 21.5391 8.88272 20.9541 9.60443 20.9542H13.0889C14.0947 20.9542 14.7233 22.0431 14.2203 22.9142C13.987 23.3184 13.5557 23.5675 13.0889 23.5675H9.60443C8.88272 23.5675 8.2978 22.9826 8.2978 22.2609Z" fill="black"/>
</svg>
