<svg width="15" height="14" viewBox="0 0 15 14" fill="none" xmlns="http://www.w3.org/2000/svg">
<path d="M13.9935 5.61993C13.9594 3.62606 12.3417 1.84912 10.3438 1.84912C9.18837 1.84912 8.17031 2.45362 7.5 3.34087C6.82969 2.45362 5.81163 1.84912 4.65625 1.84912C2.65831 1.84912 1.04062 3.62606 1.0065 5.61993H1C1 5.63212 1.00244 5.6435 1.00244 5.65568C1.00244 5.66462 1 5.67356 1 5.68331C1 5.73937 1.01381 5.78162 1.01625 5.83525C1.195 10.9166 7.44881 12.9999 7.44881 12.9999C7.44881 12.9999 13.7944 10.9191 13.9821 5.84337C13.9854 5.7865 14 5.74181 14 5.68331C14 5.67356 13.9976 5.66462 13.9976 5.65568C13.9976 5.64268 14 5.63212 14 5.61993H13.9935Z" stroke="#080808" stroke-width="0.40625"/>
</svg>
